# Blender 4.1.0
# www.blender.org
mtllib hollow_cylinder.mtl
o Cylinder
v 0.000000 1.000000 1.000000
v 0.000000 -1.000000 1.000000
v 0.951057 1.000000 0.309017
v 0.951057 -1.000000 0.309017
v 0.587785 1.000000 -0.809017
v 0.587785 -1.000000 -0.809017
v -0.587785 1.000000 -0.809017
v -0.587785 -1.000000 -0.809017
v -0.951057 1.000000 0.309017
v -0.951057 -1.000000 0.309017
vn 0.5878 -0.0000 0.8090
vn 0.9511 -0.0000 -0.3090
vn -0.0000 -0.0000 -1.0000
vn -0.9511 -0.0000 -0.3090
vn -0.5878 -0.0000 0.8090
vt 1.000000 0.000000
vt 1.000000 1.000000
vt 0.800000 1.000000
vt 0.800000 0.000000
vt 0.600000 1.000000
vt 0.600000 0.000000
vt 0.400000 1.000000
vt 0.400000 0.000000
vt 0.200000 1.000000
vt 0.200000 0.000000
vt 0.000000 1.000000
vt 0.000000 0.000000
s 0
f 1/1/1 2/2/1 4/3/1 3/4/1
f 3/4/2 4/3/2 6/5/2 5/6/2
f 5/6/3 6/5/3 8/7/3 7/8/3
f 7/8/4 8/7/4 10/9/4 9/10/4
f 9/10/5 10/9/5 2/11/5 1/12/5
